<svg xmlns="http://www.w3.org/2000/svg" viewBox="0 0 200 200" aria-label="projection — one source resource mirrored to multiple Kubernetes namespaces"><title>projection</title><path stroke="#326ce5" stroke-width="2.5" stroke-linecap="round" d="M100 85.84V43.75m-28.52 91.46L35 156.25m93.52-21.04L165 156.25"/><path fill="#326ce5" d="m138 118.75-19 32.91H81l-19-32.91 19-32.91h38z"/><path fill="#fff" d="m116 118.75-8 13.86H92l-8-13.86 8-13.86h16z"/><path fill="#326ce5" d="m117 43.75-8.5 14.72h-17L83 43.75l8.5-14.72h17z"/><path fill="#fff" d="m107 43.75-3.5-6.06h-7L93 43.75l3.5 6.06h7z"/><path fill="#326ce5" d="m52 156.25-8.5 14.72h-17L18 156.25l8.5-14.72h17z"/><path fill="#fff" d="m42 156.25-3.5-6.06h-7l-3.5 6.06 3.5 6.06h7z"/><path fill="#326ce5" d="m182 156.25-8.5 14.72h-17l-8.5-14.72 8.5-14.72h17z"/><path fill="#fff" d="m172 156.25-3.5-6.06h-7l-3.5 6.06 3.5 6.06h7z"/></svg>